<mxfile host="Electron" modified="2023-12-30T06:32:01.043Z" agent="Mozilla/5.0 (Windows NT 10.0; Win64; x64) AppleWebKit/537.36 (KHTML, like Gecko) draw.io/22.1.2 Chrome/114.0.5735.289 Electron/25.9.4 Safari/537.36" etag="sqeGAOQ3zNd_nXcEaorw" version="22.1.2" type="device">
  <diagram name="第 1 页" id="1YSf-_2dVTsVOeADFJhU">
    <mxGraphModel dx="2314" dy="820" grid="1" gridSize="10" guides="1" tooltips="1" connect="1" arrows="1" fold="1" page="1" pageScale="1" pageWidth="827" pageHeight="1169" math="0" shadow="0">
      <root>
        <mxCell id="0" />
        <mxCell id="1" parent="0" />
        <mxCell id="u3bfva5y0N8mrklL4nkP-5" value="" style="shape=partialRectangle;whiteSpace=wrap;html=1;left=0;right=0;fillColor=none;strokeColor=#000000;" vertex="1" parent="1">
          <mxGeometry x="130" y="220" width="120" height="60" as="geometry" />
        </mxCell>
        <mxCell id="u3bfva5y0N8mrklL4nkP-8" value="" style="endArrow=none;html=1;rounded=0;entryX=0;entryY=0;entryDx=0;entryDy=0;exitX=0;exitY=1;exitDx=0;exitDy=0;fillColor=#ffe6cc;strokeColor=#000000;" edge="1" parent="1" source="u3bfva5y0N8mrklL4nkP-5" target="u3bfva5y0N8mrklL4nkP-5">
          <mxGeometry width="50" height="50" relative="1" as="geometry">
            <mxPoint x="60" y="330" as="sourcePoint" />
            <mxPoint x="110" y="280" as="targetPoint" />
          </mxGeometry>
        </mxCell>
        <mxCell id="u3bfva5y0N8mrklL4nkP-9" value="随机数生成器" style="rounded=0;whiteSpace=wrap;html=1;fillColor=none;strokeColor=none;fontSize=16;" vertex="1" parent="1">
          <mxGeometry x="130" y="230" width="120" height="40" as="geometry" />
        </mxCell>
        <mxCell id="u3bfva5y0N8mrklL4nkP-10" value="" style="endArrow=classic;html=1;rounded=0;exitX=1;exitY=0.5;exitDx=0;exitDy=0;" edge="1" parent="1" source="u3bfva5y0N8mrklL4nkP-9">
          <mxGeometry width="50" height="50" relative="1" as="geometry">
            <mxPoint x="400" y="210" as="sourcePoint" />
            <mxPoint x="460" y="250" as="targetPoint" />
          </mxGeometry>
        </mxCell>
        <mxCell id="u3bfva5y0N8mrklL4nkP-12" value="" style="rounded=1;whiteSpace=wrap;html=1;fillColor=#dae8fc;strokeColor=#6c8ebf;" vertex="1" parent="1">
          <mxGeometry x="460" y="220" width="180" height="60" as="geometry" />
        </mxCell>
        <mxCell id="u3bfva5y0N8mrklL4nkP-13" value="随机数" style="rounded=0;whiteSpace=wrap;html=1;fillColor=none;strokeColor=none;fontSize=16;" vertex="1" parent="1">
          <mxGeometry x="290" y="220" width="120" height="40" as="geometry" />
        </mxCell>
        <mxCell id="u3bfva5y0N8mrklL4nkP-11" value=" EquationFactory" style="rounded=0;whiteSpace=wrap;html=1;fillColor=#dae8fc;strokeColor=none;fontSize=16;" vertex="1" parent="1">
          <mxGeometry x="475" y="230" width="150" height="40" as="geometry" />
        </mxCell>
        <mxCell id="u3bfva5y0N8mrklL4nkP-15" value="" style="endArrow=classic;html=1;rounded=0;exitX=0.5;exitY=1;exitDx=0;exitDy=0;" edge="1" parent="1" source="u3bfva5y0N8mrklL4nkP-12">
          <mxGeometry width="50" height="50" relative="1" as="geometry">
            <mxPoint x="570" y="410" as="sourcePoint" />
            <mxPoint x="550" y="390" as="targetPoint" />
          </mxGeometry>
        </mxCell>
        <mxCell id="u3bfva5y0N8mrklL4nkP-16" value="生成的算式" style="rounded=0;whiteSpace=wrap;html=1;fillColor=none;strokeColor=none;fontSize=16;" vertex="1" parent="1">
          <mxGeometry x="540" y="310" width="120" height="40" as="geometry" />
        </mxCell>
        <mxCell id="u3bfva5y0N8mrklL4nkP-47" style="edgeStyle=orthogonalEdgeStyle;rounded=0;orthogonalLoop=1;jettySize=auto;html=1;exitX=0.75;exitY=1;exitDx=0;exitDy=0;entryX=1;entryY=0.75;entryDx=0;entryDy=0;" edge="1" parent="1" source="u3bfva5y0N8mrklL4nkP-17" target="u3bfva5y0N8mrklL4nkP-26">
          <mxGeometry relative="1" as="geometry" />
        </mxCell>
        <mxCell id="u3bfva5y0N8mrklL4nkP-17" value="" style="rounded=1;whiteSpace=wrap;html=1;fillColor=#dae8fc;strokeColor=#6c8ebf;" vertex="1" parent="1">
          <mxGeometry x="420" y="390" width="260" height="60" as="geometry" />
        </mxCell>
        <mxCell id="u3bfva5y0N8mrklL4nkP-18" value="EquationCheckerOfRange" style="rounded=0;whiteSpace=wrap;html=1;fillColor=#dae8fc;strokeColor=none;fontSize=16;" vertex="1" parent="1">
          <mxGeometry x="440" y="400" width="220" height="40" as="geometry" />
        </mxCell>
        <mxCell id="u3bfva5y0N8mrklL4nkP-20" value="" style="endArrow=classic;html=1;rounded=0;entryX=1;entryY=0.5;entryDx=0;entryDy=0;exitX=0;exitY=0.5;exitDx=0;exitDy=0;" edge="1" parent="1" source="u3bfva5y0N8mrklL4nkP-17">
          <mxGeometry width="50" height="50" relative="1" as="geometry">
            <mxPoint x="300" y="540" as="sourcePoint" />
            <mxPoint x="290" y="420" as="targetPoint" />
          </mxGeometry>
        </mxCell>
        <mxCell id="u3bfva5y0N8mrklL4nkP-28" style="edgeStyle=orthogonalEdgeStyle;rounded=0;orthogonalLoop=1;jettySize=auto;html=1;exitX=0.5;exitY=1;exitDx=0;exitDy=0;entryX=0.5;entryY=0;entryDx=0;entryDy=0;" edge="1" parent="1" source="u3bfva5y0N8mrklL4nkP-23" target="u3bfva5y0N8mrklL4nkP-26">
          <mxGeometry relative="1" as="geometry" />
        </mxCell>
        <mxCell id="u3bfva5y0N8mrklL4nkP-23" value="" style="shape=partialRectangle;whiteSpace=wrap;html=1;left=0;right=0;fillColor=none;strokeColor=#000000;" vertex="1" parent="1">
          <mxGeometry x="130" y="390" width="150" height="60" as="geometry" />
        </mxCell>
        <mxCell id="u3bfva5y0N8mrklL4nkP-24" value="" style="endArrow=none;html=1;rounded=0;entryX=0;entryY=0;entryDx=0;entryDy=0;exitX=0;exitY=1;exitDx=0;exitDy=0;fillColor=#ffe6cc;strokeColor=#000000;" edge="1" parent="1" source="u3bfva5y0N8mrklL4nkP-23" target="u3bfva5y0N8mrklL4nkP-23">
          <mxGeometry width="50" height="50" relative="1" as="geometry">
            <mxPoint x="20" y="460" as="sourcePoint" />
            <mxPoint x="70" y="410" as="targetPoint" />
          </mxGeometry>
        </mxCell>
        <mxCell id="u3bfva5y0N8mrklL4nkP-25" value="验证的算式" style="rounded=0;whiteSpace=wrap;html=1;fillColor=none;strokeColor=none;fontSize=16;" vertex="1" parent="1">
          <mxGeometry x="294" y="390" width="120" height="40" as="geometry" />
        </mxCell>
        <mxCell id="u3bfva5y0N8mrklL4nkP-40" style="edgeStyle=orthogonalEdgeStyle;rounded=0;orthogonalLoop=1;jettySize=auto;html=1;exitX=0;exitY=0.25;exitDx=0;exitDy=0;entryX=1;entryY=0.25;entryDx=0;entryDy=0;" edge="1" parent="1" source="u3bfva5y0N8mrklL4nkP-26" target="u3bfva5y0N8mrklL4nkP-37">
          <mxGeometry relative="1" as="geometry" />
        </mxCell>
        <mxCell id="u3bfva5y0N8mrklL4nkP-45" style="edgeStyle=orthogonalEdgeStyle;rounded=0;orthogonalLoop=1;jettySize=auto;html=1;exitX=1;exitY=0.25;exitDx=0;exitDy=0;entryX=0.25;entryY=1;entryDx=0;entryDy=0;" edge="1" parent="1" source="u3bfva5y0N8mrklL4nkP-26" target="u3bfva5y0N8mrklL4nkP-17">
          <mxGeometry relative="1" as="geometry" />
        </mxCell>
        <mxCell id="u3bfva5y0N8mrklL4nkP-26" value="" style="rounded=1;whiteSpace=wrap;html=1;fillColor=#f8cecc;strokeColor=#b85450;" vertex="1" parent="1">
          <mxGeometry x="120" y="560" width="170" height="80" as="geometry" />
        </mxCell>
        <mxCell id="u3bfva5y0N8mrklL4nkP-27" value="JavaFX前端界面" style="rounded=0;whiteSpace=wrap;html=1;fillColor=#f8cecc;strokeColor=none;fontSize=16;" vertex="1" parent="1">
          <mxGeometry x="142.5" y="580" width="125" height="40" as="geometry" />
        </mxCell>
        <mxCell id="u3bfva5y0N8mrklL4nkP-43" style="edgeStyle=orthogonalEdgeStyle;rounded=0;orthogonalLoop=1;jettySize=auto;html=1;exitX=1;exitY=0.75;exitDx=0;exitDy=0;entryX=0;entryY=0.75;entryDx=0;entryDy=0;" edge="1" parent="1" source="u3bfva5y0N8mrklL4nkP-37" target="u3bfva5y0N8mrklL4nkP-26">
          <mxGeometry relative="1" as="geometry" />
        </mxCell>
        <mxCell id="u3bfva5y0N8mrklL4nkP-37" value="" style="rounded=0;whiteSpace=wrap;html=1;fillColor=#fff2cc;strokeColor=#d6b656;" vertex="1" parent="1">
          <mxGeometry x="-170" y="560" width="120" height="80" as="geometry" />
        </mxCell>
        <mxCell id="u3bfva5y0N8mrklL4nkP-31" value="用户" style="rounded=0;whiteSpace=wrap;html=1;fillColor=#fff2cc;strokeColor=none;fontSize=16;" vertex="1" parent="1">
          <mxGeometry x="-155" y="580" width="90" height="40" as="geometry" />
        </mxCell>
        <mxCell id="u3bfva5y0N8mrklL4nkP-41" value="算式、准确率" style="rounded=0;whiteSpace=wrap;html=1;fillColor=none;strokeColor=none;fontSize=16;" vertex="1" parent="1">
          <mxGeometry x="-20" y="545" width="125" height="40" as="geometry" />
        </mxCell>
        <mxCell id="u3bfva5y0N8mrklL4nkP-42" value="指定数量算式" style="rounded=0;whiteSpace=wrap;html=1;fillColor=none;strokeColor=none;fontSize=16;" vertex="1" parent="1">
          <mxGeometry x="90" y="480" width="120" height="40" as="geometry" />
        </mxCell>
        <mxCell id="u3bfva5y0N8mrklL4nkP-44" value="用户答案" style="rounded=0;whiteSpace=wrap;html=1;fillColor=none;strokeColor=none;fontSize=16;" vertex="1" parent="1">
          <mxGeometry x="-35" y="610" width="125" height="40" as="geometry" />
        </mxCell>
        <mxCell id="u3bfva5y0N8mrklL4nkP-46" value="用户回答" style="rounded=0;whiteSpace=wrap;html=1;fillColor=none;strokeColor=none;fontSize=16;" vertex="1" parent="1">
          <mxGeometry x="320" y="545" width="120" height="40" as="geometry" />
        </mxCell>
        <mxCell id="u3bfva5y0N8mrklL4nkP-48" value="用户答题结果" style="rounded=0;whiteSpace=wrap;html=1;fillColor=none;strokeColor=none;fontSize=16;" vertex="1" parent="1">
          <mxGeometry x="420" y="585" width="120" height="40" as="geometry" />
        </mxCell>
        <mxCell id="u3bfva5y0N8mrklL4nkP-50" value="" style="shape=partialRectangle;whiteSpace=wrap;html=1;left=0;right=0;fillColor=none;strokeColor=#000000;" vertex="1" parent="1">
          <mxGeometry x="-180" y="390" width="150" height="60" as="geometry" />
        </mxCell>
        <mxCell id="u3bfva5y0N8mrklL4nkP-51" value="" style="endArrow=none;html=1;rounded=0;entryX=0;entryY=0;entryDx=0;entryDy=0;exitX=0;exitY=1;exitDx=0;exitDy=0;fillColor=#ffe6cc;strokeColor=#000000;" edge="1" parent="1" source="u3bfva5y0N8mrklL4nkP-50" target="u3bfva5y0N8mrklL4nkP-50">
          <mxGeometry width="50" height="50" relative="1" as="geometry">
            <mxPoint x="-250" y="560" as="sourcePoint" />
            <mxPoint x="-200" y="510" as="targetPoint" />
          </mxGeometry>
        </mxCell>
        <mxCell id="u3bfva5y0N8mrklL4nkP-53" value="" style="endArrow=classic;html=1;rounded=0;exitX=1;exitY=0.25;exitDx=0;exitDy=0;fillColor=#ffe6cc;strokeColor=#000000;" edge="1" parent="1" source="u3bfva5y0N8mrklL4nkP-50">
          <mxGeometry width="50" height="50" relative="1" as="geometry">
            <mxPoint x="60" y="430" as="sourcePoint" />
            <mxPoint x="130" y="405" as="targetPoint" />
          </mxGeometry>
        </mxCell>
        <mxCell id="u3bfva5y0N8mrklL4nkP-54" value="" style="endArrow=classic;html=1;rounded=0;exitX=0;exitY=0.75;exitDx=0;exitDy=0;fillColor=#ffe6cc;strokeColor=#000000;entryX=1;entryY=0.75;entryDx=0;entryDy=0;" edge="1" parent="1" source="u3bfva5y0N8mrklL4nkP-21" target="u3bfva5y0N8mrklL4nkP-49">
          <mxGeometry width="50" height="50" relative="1" as="geometry">
            <mxPoint x="120" y="430" as="sourcePoint" />
            <mxPoint x="-20" y="430" as="targetPoint" />
          </mxGeometry>
        </mxCell>
        <mxCell id="u3bfva5y0N8mrklL4nkP-55" value="被读取的算式" style="rounded=0;whiteSpace=wrap;html=1;fillColor=none;strokeColor=none;fontSize=16;" vertex="1" parent="1">
          <mxGeometry x="-10" y="370" width="120" height="40" as="geometry" />
        </mxCell>
        <mxCell id="u3bfva5y0N8mrklL4nkP-56" value="需要存储的算式" style="rounded=0;whiteSpace=wrap;html=1;fillColor=none;strokeColor=none;fontSize=16;" vertex="1" parent="1">
          <mxGeometry x="-15" y="420" width="120" height="40" as="geometry" />
        </mxCell>
        <mxCell id="u3bfva5y0N8mrklL4nkP-21" value="EquationCollection" style="rounded=0;whiteSpace=wrap;html=1;fillColor=none;strokeColor=none;fontSize=16;" vertex="1" parent="1">
          <mxGeometry x="130" y="400" width="150" height="40" as="geometry" />
        </mxCell>
        <mxCell id="u3bfva5y0N8mrklL4nkP-49" value="数据库" style="rounded=0;whiteSpace=wrap;html=1;fillColor=none;strokeColor=none;fontSize=16;" vertex="1" parent="1">
          <mxGeometry x="-170" y="400" width="140" height="40" as="geometry" />
        </mxCell>
      </root>
    </mxGraphModel>
  </diagram>
</mxfile>
